# xmcd CD database file
#
# Track frame offsets:
#	150
#	28820
#	58694
#	83918
#	107735
#	134023
#	161758
#
# Disc length: 2542 seconds
#
# Revision: 0
# Processed by: cddbd v1.5.2PL0 Copyright (c) Steve Scherf et al.
# Submitted via: CDex 1.51
#
DISCID=5f09ec07
DTITLE=A Ortiz-Pablo Tarazona - Magia de la Alhambra
DYEAR=1900
DGENRE=New Age
TTITLE0=remanso de guitarras
TTITLE1=encuentro andaluz
TTITLE2=canto mediterraneo
TTITLE3=ambiente de castañuelas
TTITLE4=luna plateada
TTITLE5=pensamientos
TTITLE6=gitanerias
EXTD=
EXTT0=
EXTT1=
EXTT2=
EXTT3=
EXTT4=
EXTT5=
EXTT6=
PLAYORDER=
